<?xml version="1.0" standalone="no"?>
<!DOCTYPE svg PUBLIC "-//W3C//DTD SVG 20010904//EN"
 "http://www.w3.org/TR/2001/REC-SVG-20010904/DTD/svg10.dtd">
<svg version="1.0" xmlns="http://www.w3.org/2000/svg"
 viewBox="0 0 1280.000000 911.000000"
 preserveAspectRatio="xMidYMid meet">
<metadata>
Created by potrace 1.15, written by Peter Selinger 2001-2017
</metadata>
<g transform="translate(0.000000,911.000000) scale(0.100000,-0.100000)"
fill="#000000" stroke="none">
<path d="M552 8438 c-50 -134 -161 -429 -246 -657 -86 -227 -156 -415 -156
-417 0 -2 94 -4 208 -4 l209 0 12 43 c7 23 22 72 33 110 l20 67 231 -2 231 -3
34 -108 33 -107 212 2 c134 2 211 7 210 13 -2 14 -481 1284 -488 1295 -4 6
-97 10 -229 10 l-223 0 -91 -242z m388 -347 l67 -221 -143 0 -143 0 9 28 c5
15 34 110 65 212 69 229 64 214 71 207 3 -3 36 -105 74 -226z"/>
</g>
</svg>
